<svg xmlns="http://www.w3.org/2000/svg" xmlns:xlink="http://www.w3.org/1999/xlink" version="1.1" id="Calque_1" x="0px" y="0px" width="100px" height="100px" viewBox="0 0 100 100" enable-background="new 0 0 100 100" xml:space="preserve">
<g>
	<path fill-rule="evenodd" clip-rule="evenodd" d="M85.506,51.58c-6.818,2.345-17.96,1.172-21.177-3.397   c-1.974,4.083,3.185,9.674-0.31,14.27c2.123,0.665,2.482-2.433,3.896-2.422c0.854,0.991-0.347,2.525-0.878,3.675   c-0.601,1.299-1.472,2.528-2.055,3.514c0.464,1.005,1.25,1.719,1.656,2.776c0.001,1.602,0.037,3.234-0.549,4.292   c2.986,3.965-0.671,8.237-2.967,10.565c0.151,9.07-11.104,7.555-16.108,11.838c-0.435,0.681-0.392,1.805-1.033,2.295   c-1.554-0.14-1.454-1.227-2.844-1.713c-3.029-1.059-7.546,0.326-10.428-0.854c-2.338-0.955-2.537-2.878-3.655-4.941   c-5.385,1.027-8.636-1.95-7.683-6.049c-3.226-1.041-6.301-5.969-3.112-8.772c-2.987-2.785-1.705-8.556,1.282-10.426   c-0.1-0.94-0.766-1.606-0.311-2.611c-1.79-2.796-2.716-6.232-1.419-9.681c0.276-0.734,0.959-1.435,1.032-2.141   c0.149-1.437-0.983-2.502-0.974-3.691c-2.723-3.036-5.141-6.024-5.786-10.638c-0.5-3.575-0.009-7.538,0.275-10.741   c0.638-7.208,5.504-14.208,10.113-18.333c4.383-3.925,9.66-6.584,15.229-8.009c13.562-1.865,24.99,3.292,31.72,9.623   c4.118,3.875,7.328,9.396,7.921,16.027C77.764,30.718,79.474,50.504,85.506,51.58 M68.947,40.855   c1.354-2.933,3.035-6.117,2.118-9.806c-0.978-3.925-6.008-7.094-9.657-10.05c-9.183-7.438-27.608-4.833-37.882-0.01   c-4.933,1.844-10.784,9.034-9.935,17.26c0.324,3.136,2.062,5.498,3.965,7.553c0.54-0.798-0.16-1.947,0.027-2.763   c0.147-0.642,0.598-0.603,0.686-1.222c-0.812-1.097-1.195-2.58-1.473-4.157c0.181-0.606,1.059-0.565,1.69-0.753   c3.549-3.988,10.226-7.283,17.751-7.681c8.166-0.432,16.113,0.139,22.358,2.947c2.359,1.538,3.456,4.206,5.495,6.031   c1.087-0.231,0.611-1.913,1.872-1.98c1.521,2.574-0.945,6.323-2.271,8.268C66.124,43.912,67.174,42.048,68.947,40.855z    M41.448,30.038c-9.711-0.08-19.229,2.782-22.302,8.257c6.09,3.724,19.97,0.474,20.786,8.92c-0.431,0.683-0.403,1.793-1.367,1.983   c-1.681-1.592-3.367-3.014-6.533-3.277c-5.179-0.431-8.663-0.205-11.594-2.091c-0.498-0.32-0.95-1.128-1.676-0.781   c-0.203,1.71,0.008,3.039,0.291,4.607c0.252,1.403,1.208,2.925,1.137,4.153c-0.07,1.218-1.504,2.462-1.724,4.131   c-0.304,2.298,0.108,3.837,1.12,5.84c1.119,0.926,1.713,2.32,3.169,2.942c5.167,0.954,5.917-4.321,9.324-6.523   c2.648-1.711,6.271-2.74,9.268-0.996c0.767,0.489,2.235,1.056,1.325,2.159c-2.029-0.879-3.425-2.362-6.041-1.892   c-6.947,1.248-6.847,10.286-15.735,8.158c1.387,3.378,5.962,5.108,10.737,3.618c2.629-0.822,3.48-3.452,5.595-4.098   c1.715-0.523,3.538-0.038,5.224-0.418c1.329-0.779,1.381-2.743,2.228-3.972c1.08,0.3,0.423,2.155,0.811,3.077   c1.379,2.152,5.687,1.923,8.891,3.142c1.996,0.76,4.027,2.725,6.034,2.506c2.597-0.283,3.891-3.649,5.107-5.791   c-1.366-0.081-2.117,0.41-3.204,0.588c-1.417-0.823-2.729-0.922-4.191-1.723c-3.202-1.753-4.346-5.181-9.886-4.532   c-0.898,0.104-1.849,1.062-2.526,0.134c1.55-1.543,5.135-1.423,7.245-0.709c3.233,1.096,5.3,4.966,9.038,5.292   c1.46-1.544,2.039-3.104,2.068-5.047c0.041-2.511-1.812-4.871-1.78-7.074c0.027-1.993,1.379-3.544,0.729-5.52   c-1.148,0.023-1.573,0.738-2.704,1.052c-2.609,0.725-6.048-0.079-9.091,0.079c-2.751,0.143-4.714,1.695-6.752,1.939   c-0.927-1.161,0.452-2.194,0.705-3.217c3.418-4.208,13.355-2.365,17.398-5.995C60.189,32.372,50.974,30.116,41.448,30.038z    M44.303,64.747c-1.077,1.323-3.897,1.029-5.74,1.642c3.572,0.207,5.826,2.164,8.751,0.225   C46.548,65.778,45.264,65.407,44.303,64.747z M65.261,73.206 M65.407,75.204 M24.855,90.678 M18.07,78.957"/>
	<path fill-rule="evenodd" clip-rule="evenodd" d="M44.801,48.482c-0.815,2.785,0.92,4.927,0.941,6.915   C43.591,55.489,41.93,48.719,44.801,48.482z"/>
</g>
<path fill-rule="evenodd" clip-rule="evenodd" d="M89.029,54.901c-1.421-3.293-5.388-4.75-8.858-3.252  c-3.472,1.497-5.134,5.38-3.714,8.674c1.421,3.291,5.386,4.751,8.856,3.253C88.786,62.08,90.448,58.194,89.029,54.901z   M78.028,59.646c-1.066-2.47,2.11,0.31,4.715-0.812c2.604-1.123,3.647-5.724,4.714-3.255c1.064,2.472-0.183,5.385-2.785,6.507  C82.065,63.208,79.093,62.115,78.028,59.646z"/>
</svg>