<svg xmlns="http://www.w3.org/2000/svg" xmlns:xlink="http://www.w3.org/1999/xlink" version="1.1" id="Layer_1" x="0px" y="0px" width="100px" height="100px" viewBox="0 0 100 100" enable-background="new 0 0 100 100" xml:space="preserve">
<g>
	<path fill="#000000" d="M87.125,96.447l-8.82-12.441c4.555-0.029,8.236-3.729,8.236-8.287L83.568,8.327   c0-4.579-3.713-8.291-8.291-8.291H25.724c-4.578,0-8.289,3.712-8.289,8.291l-2.973,67.392c0,4.561,3.683,8.26,8.236,8.287   L13.88,96.447c-0.713,1.004-0.475,2.395,0.529,3.107c0.391,0.276,0.841,0.409,1.288,0.409c0.698,0,1.387-0.325,1.82-0.938   l10.646-15.019h21.684v1.466c0,0.819,0.665,1.485,1.486,1.485s1.487-0.666,1.487-1.485v-1.466h20.021l10.646,15.019   c0.435,0.613,1.123,0.938,1.82,0.938c0.445,0,0.896-0.133,1.287-0.409C87.6,98.842,87.838,97.451,87.125,96.447z M26.346,77.545   c-2.977,0-5.389-2.414-5.389-5.389c0-2.977,2.412-5.389,5.389-5.389s5.389,2.412,5.389,5.389   C31.734,75.131,29.322,77.545,26.346,77.545z M27.83,56.785c-3.452,0-6.249-2.801-6.249-6.251l1.486-39.238   c0-3.451,2.798-6.249,6.249-6.249h42.368c3.455,0,6.252,2.798,6.252,6.249l1.485,39.238c0,3.45-2.796,6.251-6.251,6.251H27.83z    M69.27,72.156c0-2.977,2.412-5.389,5.39-5.389c2.977,0,5.389,2.412,5.389,5.389c0,2.975-2.412,5.389-5.389,5.389   C71.682,77.545,69.27,75.131,69.27,72.156z"/>
	<path fill="#000000" d="M51.333,89.213c-0.821,0-1.486,0.664-1.486,1.486v7.557c0,0.82,0.665,1.486,1.486,1.486   s1.487-0.666,1.487-1.486v-7.557C52.82,89.877,52.154,89.213,51.333,89.213z"/>
</g>
</svg>