<?xml version="1.0" encoding="UTF-8" standalone="no"?>
<!-- Created with Inkscape (http://www.inkscape.org/) -->

<svg
   xmlns:osb="http://www.openswatchbook.org/uri/2009/osb"
   xmlns:dc="http://purl.org/dc/elements/1.1/"
   xmlns:cc="http://creativecommons.org/ns#"
   xmlns:rdf="http://www.w3.org/1999/02/22-rdf-syntax-ns#"
   xmlns:svg="http://www.w3.org/2000/svg"
   xmlns="http://www.w3.org/2000/svg"
   xmlns:sodipodi="http://sodipodi.sourceforge.net/DTD/sodipodi-0.dtd"
   xmlns:inkscape="http://www.inkscape.org/namespaces/inkscape"
   width="600"
   height="800"
   id="svg2"
   version="1.1"
   inkscape:version="0.48.4 r9939"
   sodipodi:docname="skjerm5.svg">
  <defs
     id="defs4">
    <linearGradient
       id="linearGradient4054"
       osb:paint="solid">
      <stop
         style="stop-color:#1a1a1a;stop-opacity:1;"
         offset="0"
         id="stop4056" />
    </linearGradient>
  </defs>
  <sodipodi:namedview
     id="base"
     pagecolor="#ffffff"
     bordercolor="#666666"
     borderopacity="1.0"
     inkscape:pageopacity="0.0"
     inkscape:pageshadow="2"
     inkscape:zoom="0.420625"
     inkscape:cx="523.40385"
     inkscape:cy="229.70687"
     inkscape:document-units="px"
     inkscape:current-layer="layer1"
     showgrid="false"
     inkscape:window-width="1600"
     inkscape:window-height="838"
     inkscape:window-x="-8"
     inkscape:window-y="-8"
     inkscape:window-maximized="1" />
  <metadata
     id="metadata7">
    <rdf:RDF>
      <cc:Work
         rdf:about="">
        <dc:format>image/svg+xml</dc:format>
        <dc:type
           rdf:resource="http://purl.org/dc/dcmitype/StillImage" />
        <dc:title></dc:title>
      </cc:Work>
    </rdf:RDF>
  </metadata>
  <g
     inkscape:label="Layer 1"
     inkscape:groupmode="layer"
     id="layer1"
     transform="translate(0,-252.36218)">
    <text
       xml:space="preserve"
       style="font-size:40px;font-style:normal;font-weight:normal;line-height:125%;letter-spacing:0px;word-spacing:0px;fill:#000000;fill-opacity:1;stroke:none;font-family:Sans"
       x="-468.57141"
       y="408.07648"
       id="text3135"
       sodipodi:linespacing="125%"><tspan
         sodipodi:role="line"
         x="-468.57141"
         y="408.07648"
         id="tspan3139">Varsel</tspan></text>
    <text
       xml:space="preserve"
       style="font-size:40px;font-style:normal;font-weight:normal;line-height:125%;letter-spacing:0px;word-spacing:0px;fill:#000000;fill-opacity:1;stroke:none;font-family:Sans"
       x="-389.99997"
       y="310.93362"
       id="text3164"
       sodipodi:linespacing="125%"><tspan
         sodipodi:role="line"
         id="tspan3166"
         x="-389.99997"
         y="310.93362"> Nå</tspan></text>
    <text
       xml:space="preserve"
       style="font-size:40px;font-style:normal;font-variant:normal;font-weight:normal;font-stretch:normal;text-align:center;line-height:125%;letter-spacing:0px;word-spacing:0px;writing-mode:lr-tb;text-anchor:middle;fill:#000000;fill-opacity:1;stroke:none;font-family:Sans;-inkscape-font-specification:Sans"
       x="298"
       y="545.21936"
       id="text3168"
       sodipodi:linespacing="125%"><tspan
         sodipodi:role="line"
         x="298"
         y="545.21936"
         id="tspan3180"
         style="font-size:40px;font-style:normal;font-variant:normal;font-weight:normal;font-stretch:normal;text-align:center;line-height:125%;writing-mode:lr-tb;text-anchor:middle;font-family:Sans;-inkscape-font-specification:Sans">Torsdag: Nora overtid</tspan><tspan
         sodipodi:role="line"
         x="298"
         y="595.21936"
         id="tspan3182"
         style="font-size:40px;font-style:normal;font-variant:normal;font-weight:normal;font-stretch:normal;text-align:center;line-height:125%;writing-mode:lr-tb;text-anchor:middle;font-family:Sans;-inkscape-font-specification:Sans">fredag-mandag: Benthe i oslo</tspan><tspan
         sodipodi:role="line"
         x="298"
         y="645.21936"
         id="tspan3186"
         style="font-size:40px;font-style:normal;font-variant:normal;font-weight:normal;font-stretch:normal;text-align:center;line-height:125%;writing-mode:lr-tb;text-anchor:middle;font-family:Sans;-inkscape-font-specification:Sans" /></text>
    <text
       xml:space="preserve"
       style="font-size:40px;font-style:normal;font-weight:normal;line-height:125%;letter-spacing:0px;word-spacing:0px;fill:#000000;fill-opacity:1;stroke:none;font-family:Sans"
       x="-297.14288"
       y="940.93365"
       id="text3205"
       sodipodi:linespacing="125%"><tspan
         sodipodi:role="line"
         id="tspan3207"
         x="-297.14288"
         y="940.93365">......</tspan></text>
    <text
       xml:space="preserve"
       style="font-size:40px;font-style:normal;font-weight:normal;line-height:125%;letter-spacing:0px;word-spacing:0px;fill:#000000;fill-opacity:1;stroke:none;font-family:Sans"
       x="30.000002"
       y="313.79074"
       id="text5572"
       sodipodi:linespacing="125%"><tspan
         sodipodi:role="line"
         id="tspan5574"
         x="30.000002"
         y="313.79074"
         style="-inkscape-font-specification:Sans Bold;font-family:Sans;font-weight:bold;font-style:normal;font-stretch:normal;font-variant:normal;font-size:40px;text-anchor:start;text-align:start;writing-mode:lr;line-height:125%">ute</tspan></text>
    <text
       xml:space="preserve"
       style="font-size:40px;font-style:normal;font-weight:normal;line-height:125%;letter-spacing:0px;word-spacing:0px;fill:#000000;fill-opacity:1;stroke:none;font-family:Sans"
       x="245.23457"
       y="317.83661"
       id="text5576"
       sodipodi:linespacing="125%"><tspan
         sodipodi:role="line"
         id="tspan5578"
         x="245.23457"
         y="317.83661"
         style="font-size:40px;font-style:normal;font-variant:normal;font-weight:bold;font-stretch:normal;text-align:start;line-height:125%;writing-mode:lr-tb;text-anchor:start;font-family:Sans;-inkscape-font-specification:Sans Bold">inne</tspan></text>
    <text
       xml:space="preserve"
       style="font-size:100px;font-style:normal;font-variant:normal;font-weight:normal;font-stretch:normal;text-align:start;line-height:125%;letter-spacing:0px;word-spacing:0px;writing-mode:lr-tb;text-anchor:start;fill:#000000;fill-opacity:1;stroke:none;font-family:Sans;-inkscape-font-specification:Sans"
       x="34.285713"
       y="395.21933"
       id="text5580"
       sodipodi:linespacing="125%"><tspan
         sodipodi:role="line"
         id="tspan5582"
         x="34.285713"
         y="395.21933">14</tspan></text>
    <text
       xml:space="preserve"
       style="font-size:48px;font-style:normal;font-variant:normal;font-weight:normal;font-stretch:normal;text-align:start;line-height:125%;letter-spacing:0px;word-spacing:0px;writing-mode:lr-tb;text-anchor:start;fill:#000000;fill-opacity:1;stroke:none;font-family:Sans;-inkscape-font-specification:Sans"
       x="144.28572"
       y="358.07648"
       id="text5584"
       sodipodi:linespacing="125%"><tspan
         sodipodi:role="line"
         id="tspan5586"
         x="144.28572"
         y="358.07648">°C</tspan></text>
    <text
       xml:space="preserve"
       style="font-size:40px;font-style:normal;font-weight:normal;line-height:125%;letter-spacing:0px;word-spacing:0px;fill:#000000;fill-opacity:1;stroke:none;font-family:Sans"
       x="145.71428"
       y="389.50504"
       id="text5588"
       sodipodi:linespacing="125%"><tspan
         sodipodi:role="line"
         id="tspan5590"
         x="145.71428"
         y="389.50504"
         style="font-size:28px">58%</tspan></text>
    <text
       xml:space="preserve"
       style="font-size:100px;font-style:normal;font-variant:normal;font-weight:normal;font-stretch:normal;text-align:start;line-height:125%;letter-spacing:0px;word-spacing:0px;writing-mode:lr-tb;text-anchor:start;fill:#000000;fill-opacity:1;stroke:none;font-family:Sans;-inkscape-font-specification:Sans"
       x="255.64803"
       y="394.91437"
       id="text5580-5"
       sodipodi:linespacing="125%"><tspan
         sodipodi:role="line"
         id="tspan5582-5"
         x="255.64803"
         y="394.91437">23</tspan></text>
    <text
       xml:space="preserve"
       style="font-size:48px;font-style:normal;font-variant:normal;font-weight:normal;font-stretch:normal;text-align:start;line-height:125%;letter-spacing:0px;word-spacing:0px;writing-mode:lr-tb;text-anchor:start;fill:#000000;fill-opacity:1;stroke:none;font-family:Sans;-inkscape-font-specification:Sans"
       x="365.64804"
       y="357.77151"
       id="text5584-1"
       sodipodi:linespacing="125%"><tspan
         sodipodi:role="line"
         id="tspan5586-7"
         x="365.64804"
         y="357.77151">°C</tspan></text>
    <text
       xml:space="preserve"
       style="font-size:40px;font-style:normal;font-weight:normal;line-height:125%;letter-spacing:0px;word-spacing:0px;fill:#000000;fill-opacity:1;stroke:none;font-family:Sans"
       x="367.0766"
       y="389.20007"
       id="text5588-1"
       sodipodi:linespacing="125%"><tspan
         sodipodi:role="line"
         id="tspan5590-1"
         x="367.0766"
         y="389.20007"
         style="font-size:28px">58%</tspan></text>
    <text
       xml:space="preserve"
       style="font-size:40px;font-style:normal;font-variant:normal;font-weight:normal;font-stretch:normal;text-align:end;line-height:125%;letter-spacing:0px;word-spacing:0px;writing-mode:lr-tb;text-anchor:end;fill:#000000;fill-opacity:1;stroke:none;font-family:Sans;-inkscape-font-specification:Sans"
       x="532.12134"
       y="396.72971"
       id="text5625"
       sodipodi:linespacing="125%"><tspan
         sodipodi:role="line"
         id="tspan5627"
         x="532.12134"
         y="396.72971">1567</tspan></text>
    <text
       xml:space="preserve"
       style="font-size:40px;font-style:normal;font-variant:normal;font-weight:normal;font-stretch:normal;text-align:end;line-height:125%;letter-spacing:0px;word-spacing:0px;writing-mode:lr-tb;text-anchor:end;fill:#000000;fill-opacity:1;stroke:none;font-family:Sans;-inkscape-font-specification:Sans"
       x="532.31476"
       y="361.32147"
       id="text5625-7"
       sodipodi:linespacing="125%"><tspan
         sodipodi:role="line"
         id="tspan5627-6"
         x="532.31476"
         y="361.32147">998</tspan></text>
    <text
       xml:space="preserve"
       style="font-size:40px;font-style:normal;font-variant:normal;font-weight:normal;font-stretch:normal;text-align:end;line-height:125%;letter-spacing:0px;word-spacing:0px;writing-mode:lr-tb;text-anchor:end;fill:#000000;fill-opacity:1;stroke:none;font-family:Sans;-inkscape-font-specification:Sans"
       x="533.85028"
       y="326.02496"
       id="text5625-7-1"
       sodipodi:linespacing="125%"><tspan
         sodipodi:role="line"
         id="tspan5627-6-4"
         x="533.85028"
         y="326.02496">67</tspan></text>
    <text
       xml:space="preserve"
       style="font-size:20px;font-style:normal;font-variant:normal;font-weight:normal;font-stretch:normal;text-align:start;line-height:125%;letter-spacing:0px;word-spacing:0px;writing-mode:lr-tb;text-anchor:start;fill:#000000;fill-opacity:1;stroke:none;font-family:Sans;-inkscape-font-specification:Sans"
       x="533.61523"
       y="394.06424"
       id="text5692"
       sodipodi:linespacing="125%"><tspan
         sodipodi:role="line"
         id="tspan5694"
         x="533.61523"
         y="394.06424">ppm</tspan></text>
    <text
       xml:space="preserve"
       style="font-size:20px;font-style:normal;font-variant:normal;font-weight:normal;font-stretch:normal;text-align:start;line-height:125%;letter-spacing:0px;word-spacing:0px;writing-mode:lr-tb;text-anchor:start;fill:#000000;fill-opacity:1;stroke:none;font-family:Sans;-inkscape-font-specification:Sans"
       x="532.77289"
       y="359.88455"
       id="text5692-2"
       sodipodi:linespacing="125%"><tspan
         sodipodi:role="line"
         id="tspan5694-3"
         x="532.77289"
         y="359.88455">mbar</tspan></text>
    <text
       xml:space="preserve"
       style="font-size:20px;font-style:normal;font-variant:normal;font-weight:normal;font-stretch:normal;text-align:start;line-height:125%;letter-spacing:0px;word-spacing:0px;writing-mode:lr-tb;text-anchor:start;fill:#000000;fill-opacity:1;stroke:none;font-family:Sans;-inkscape-font-specification:Sans"
       x="535.01575"
       y="322.59787"
       id="text5692-2-2"
       sodipodi:linespacing="125%"><tspan
         sodipodi:role="line"
         id="tspan5694-3-2"
         x="535.01575"
         y="322.59787">db</tspan></text>
    <text
       xml:space="preserve"
       style="font-size:40px;font-style:normal;font-weight:normal;line-height:125%;letter-spacing:0px;word-spacing:0px;fill:#000000;fill-opacity:1;stroke:none;font-family:Sans"
       x="26.333834"
       y="879.56055"
       id="text5572-1"
       sodipodi:linespacing="125%"><tspan
         sodipodi:role="line"
         id="tspan5574-6"
         x="26.333834"
         y="879.56055"
         style="-inkscape-font-specification:Sans Bold;font-family:Sans;font-weight:bold;font-style:normal;font-stretch:normal;font-variant:normal;font-size:40px;text-anchor:start;text-align:start;writing-mode:lr;line-height:125%">varsel i morgen</tspan></text>
    <path
       id="path5763"
       d="m 94.779776,892.51386 v 22.6822 h 5.937504 v -22.6822 h -5.937504 z m -26.2447,6.4714 -5.0464,3.1464 11.9928,19.2394 5.0483,-3.1483 -11.9947,-19.2375 z m 58.782204,0.5947 -8.9661,16.2089 c -5.6734,1.2597 -10.9744,3.5435 -15.675,6.65 -1.6093,-0.2261 -3.258504,-0.3572 -4.928604,-0.3572 -20.2825,0 -36.6928,16.5205 -36.6928,36.8733 0,3.6993 0.5795,7.2675 1.6017,10.6267 -1.8582,2.3465 -3.3725,5.0198 -4.3928,7.8983 l -1.3072,-2.0197 -19.1178,12.0536 0.65322,1.0678 c -4.51554,4.4289 -7.30322,10.5659 -7.30322,17.33944 0,6.688 3.09605,12.2341 7.77822,15.3767 4.68198,3.1426 10.52619,4.2161 16.56458,4.2161 h 38.8911 5.937504 17.3375 33.9036 31.1125 c 21.185,0 38.475,-17.2862 38.475,-38.47504 0,-21.1888 -17.2881,-38.4161 -38.475,-38.4161 -3.0533,0 -5.9356,0.5016 -8.7286,1.1875 -5.4454,-20.1533 -23.5809,-35.15 -45.4214,-35.15 -0.9481,0 -1.8563,0.0646 -2.7911,0.1197 l 6.7697,-12.2911 -5.225,-2.9089 z m -84.610804,21.6125 -2.90947,5.225 19.7733,10.9839 2.85,-5.225 -19.7144,-10.9839 z m 85.857204,2.5536 c 19.1672,0 34.8061,14.0163 37.7036,32.3589 l 0.8892,5.5214 5.225,-1.9589 c 3.2946,-1.2502 6.7222,-2.0197 10.3322,-2.0197 16.302,0 29.45,13.091 29.45,29.3911 0,16.30014 -13.1499,29.45004 -29.45,29.45004 h -31.1125 -33.9036 -62.166104 c -4.8944,0 -9.0383,-1.007 -11.5178,-2.6714 -2.4795,-1.6644 -3.8,-3.6518 -3.8,-7.8964 0,-8.47974 6.82974,-15.26084 15.3178,-15.26084 1.406,0 2.8234,0.2432 4.3947,0.7125 l 5.8197,1.7822 v -6.1161 c 0,-0.5472 0.0133,-0.8702 0,-0.95 0.2527,-10.0738 8.3828,-18.05 18.525,-18.05 -0.1482,0 0.2242,0.0494 1.2464,0.1178 l 5.0464,0.3572 -0.2375,-5.0464 c -0.0551,-1.2369 -0.1197,-1.6549 -0.1197,-1.3661 0,-21.2382 17.103804,-38.3553 38.357204,-38.3553 z m -97.375004,30.5178 v 5.9375 h 22.6214 v -5.9375 h -22.6214 z"
       inkscape:connector-curvature="0" />
    <text
       xml:space="preserve"
       style="font-size:20px;font-style:normal;font-variant:normal;font-weight:normal;font-stretch:normal;text-align:start;line-height:125%;letter-spacing:0px;word-spacing:0px;writing-mode:lr-tb;text-anchor:start;fill:#000000;fill-opacity:1;stroke:none;font-family:Sans;-inkscape-font-specification:Sans"
       x="471.16989"
       y="936.33148"
       id="text5572-1-8"
       sodipodi:linespacing="125%"><tspan
         sodipodi:role="line"
         id="tspan5574-6-5"
         x="471.16989"
         y="936.33148">natt</tspan></text>
    <flowRoot
       xml:space="preserve"
       id="flowRoot5793"
       style="fill:black;stroke:none;stroke-opacity:1;stroke-width:1px;stroke-linejoin:miter;stroke-linecap:butt;fill-opacity:1;font-family:Sans;font-style:normal;font-weight:normal;font-size:40px;line-height:125%;letter-spacing:0px;word-spacing:0px"><flowRegion
         id="flowRegion5795"><rect
           id="rect5797"
           width="188"
           height="111"
           x="19"
           y="64" /></flowRegion><flowPara
         id="flowPara5799" /></flowRoot>    <text
       xml:space="preserve"
       style="font-size:144px;font-style:normal;font-variant:normal;font-weight:normal;font-stretch:normal;text-align:start;line-height:125%;letter-spacing:0px;word-spacing:0px;writing-mode:lr-tb;text-anchor:start;fill:#000000;fill-opacity:1;stroke:none;font-family:Sans;-inkscape-font-specification:Sans"
       x="214.65634"
       y="1021.9246"
       id="text5580-7"
       sodipodi:linespacing="125%"><tspan
         sodipodi:role="line"
         id="tspan5582-6"
         x="214.65634"
         y="1021.9246">14</tspan></text>
    <text
       xml:space="preserve"
       style="font-size:48px;font-style:normal;font-variant:normal;font-weight:normal;font-stretch:normal;text-align:start;line-height:125%;letter-spacing:0px;word-spacing:0px;writing-mode:lr-tb;text-anchor:start;fill:#000000;fill-opacity:1;stroke:none;font-family:Sans;-inkscape-font-specification:Sans"
       x="360.84012"
       y="956.25482"
       id="text5584-18"
       sodipodi:linespacing="125%"><tspan
         sodipodi:role="line"
         id="tspan5586-9"
         x="360.84012"
         y="956.25482">°C</tspan></text>
    <flowRoot
       xml:space="preserve"
       id="flowRoot5834"
       style="fill:black;stroke:none;stroke-opacity:1;stroke-width:1px;stroke-linejoin:miter;stroke-linecap:butt;fill-opacity:1;font-family:Sans;font-style:normal;font-weight:normal;font-size:40px;line-height:125%;letter-spacing:0px;word-spacing:0px"><flowRegion
         id="flowRegion5836"><rect
           id="rect5838"
           width="190"
           height="146"
           x="226"
           y="272" /></flowRegion><flowPara
         id="flowPara5840" /></flowRoot>    <text
       xml:space="preserve"
       style="font-size:40px;font-style:normal;font-variant:normal;font-weight:normal;font-stretch:normal;text-align:start;line-height:125%;letter-spacing:0px;word-spacing:0px;writing-mode:lr-tb;text-anchor:start;fill:#000000;fill-opacity:1;stroke:none;font-family:Sans;-inkscape-font-specification:Sans"
       x="509.08536"
       y="934.08679"
       id="text5580-7-9"
       sodipodi:linespacing="125%"><tspan
         sodipodi:role="line"
         id="tspan5582-6-5"
         x="509.08536"
         y="934.08679">14</tspan></text>
    <text
       xml:space="preserve"
       style="font-size:20px;font-style:normal;font-variant:normal;font-weight:normal;font-stretch:normal;text-align:start;line-height:125%;letter-spacing:0px;word-spacing:0px;writing-mode:lr-tb;text-anchor:start;fill:#000000;fill-opacity:1;stroke:none;font-family:Sans;-inkscape-font-specification:Sans"
       x="553.3244"
       y="920.98566"
       id="text5584-18-4"
       sodipodi:linespacing="125%"><tspan
         sodipodi:role="line"
         id="tspan5586-9-3"
         x="553.3244"
         y="920.98566">°C</tspan></text>
    <text
       xml:space="preserve"
       style="font-size:250px;font-style:normal;font-variant:normal;font-weight:normal;font-stretch:normal;text-align:center;line-height:125%;letter-spacing:0px;word-spacing:0px;writing-mode:lr-tb;text-anchor:middle;fill:#000000;fill-opacity:1;stroke:none;font-family:Sans;-inkscape-font-specification:Sans"
       x="412.42487"
       y="808.9657"
       id="text3069"
       sodipodi:linespacing="125%"><tspan
         sodipodi:role="line"
         id="tspan3071"
         x="412.42487"
         y="808.9657">12</tspan></text>
    <text
       xml:space="preserve"
       style="font-size:40px;font-style:normal;font-variant:normal;font-weight:normal;font-stretch:normal;text-align:center;line-height:125%;letter-spacing:0px;word-spacing:0px;writing-mode:lr-tb;text-anchor:middle;fill:#000000;fill-opacity:1;stroke:none;font-family:Sans;-inkscape-font-specification:Sans"
       x="749.43646"
       y="740.86346"
       id="text3069-4"
       sodipodi:linespacing="125%"><tspan
         sodipodi:role="line"
         id="tspan3071-0"
         x="749.43646"
         y="740.86346">9</tspan></text>
    <text
       xml:space="preserve"
       style="font-size:20px;font-style:normal;font-variant:normal;font-weight:normal;font-stretch:normal;text-align:start;line-height:125%;letter-spacing:0px;word-spacing:0px;writing-mode:lr-tb;text-anchor:start;fill:#000000;fill-opacity:1;stroke:none;font-family:Sans;-inkscape-font-specification:Sans"
       x="735.70148"
       y="759.05701"
       id="text5572-1-8-1-9"
       sodipodi:linespacing="125%"><tspan
         sodipodi:role="line"
         id="tspan5574-6-5-7-4"
         x="735.70148"
         y="759.05701">min</tspan></text>
    <text
       xml:space="preserve"
       style="font-size:64px;font-style:normal;font-variant:normal;font-weight:normal;font-stretch:normal;text-align:start;line-height:125%;letter-spacing:0px;word-spacing:0px;writing-mode:lr-tb;text-anchor:start;fill:#000000;fill-opacity:1;stroke:none;font-family:Sans;-inkscape-font-specification:Sans"
       x="168.22443"
       y="483.44318"
       id="text5572-1-88"
       sodipodi:linespacing="125%"><tspan
         sodipodi:role="line"
         id="tspan5574-6-2"
         x="168.22443"
         y="483.44318"
         style="-inkscape-font-specification:Sans Bold;font-family:Sans;font-weight:bold;font-style:normal;font-stretch:normal;font-variant:normal;font-size:64px;text-anchor:start;text-align:start;writing-mode:lr;line-height:125%">hva skjer</tspan></text>
    <text
       xml:space="preserve"
       style="font-size:20px;font-style:normal;font-variant:normal;font-weight:normal;font-stretch:normal;text-align:start;line-height:125%;letter-spacing:0px;word-spacing:0px;writing-mode:lr-tb;text-anchor:start;fill:#000000;fill-opacity:1;stroke:none;font-family:Sans;-inkscape-font-specification:Sans"
       x="439.74756"
       y="974.79822"
       id="text5572-1-8-4"
       sodipodi:linespacing="125%"><tspan
         sodipodi:role="line"
         id="tspan5574-6-5-5"
         x="439.74756"
         y="974.79822">morgen</tspan></text>
    <text
       xml:space="preserve"
       style="font-size:40px;font-style:normal;font-variant:normal;font-weight:normal;font-stretch:normal;text-align:start;line-height:125%;letter-spacing:0px;word-spacing:0px;writing-mode:lr-tb;text-anchor:start;fill:#000000;fill-opacity:1;stroke:none;font-family:Sans;-inkscape-font-specification:Sans"
       x="508.55746"
       y="976.36981"
       id="text5580-7-9-5"
       sodipodi:linespacing="125%"><tspan
         sodipodi:role="line"
         id="tspan5582-6-5-1"
         x="508.55746"
         y="976.36981">14</tspan></text>
    <text
       xml:space="preserve"
       style="font-size:20px;font-style:normal;font-variant:normal;font-weight:normal;font-stretch:normal;text-align:start;line-height:125%;letter-spacing:0px;word-spacing:0px;writing-mode:lr-tb;text-anchor:start;fill:#000000;fill-opacity:1;stroke:none;font-family:Sans;-inkscape-font-specification:Sans"
       x="552.79651"
       y="963.26862"
       id="text5584-18-4-7"
       sodipodi:linespacing="125%"><tspan
         sodipodi:role="line"
         id="tspan5586-9-3-1"
         x="552.79651"
         y="963.26862">°C</tspan></text>
    <text
       xml:space="preserve"
       style="font-size:20px;font-style:normal;font-variant:normal;font-weight:normal;font-stretch:normal;text-align:start;line-height:125%;letter-spacing:0px;word-spacing:0px;writing-mode:lr-tb;text-anchor:start;fill:#000000;fill-opacity:1;stroke:none;font-family:Sans;-inkscape-font-specification:Sans"
       x="458.83948"
       y="1014.3963"
       id="text5572-1-8-15"
       sodipodi:linespacing="125%"><tspan
         sodipodi:role="line"
         id="tspan5574-6-5-2"
         x="458.83948"
         y="1014.3963">kveld</tspan></text>
    <path
       style="font-size:40px;font-style:normal;font-variant:normal;font-weight:normal;font-stretch:normal;text-align:start;line-height:125%;letter-spacing:0px;word-spacing:0px;writing-mode:lr-tb;text-anchor:start;fill:#000000;fill-opacity:1;stroke:none;font-family:Sans;-inkscape-font-specification:Sans"
       d="m 521.98914,987.38239 c -0.61199,1.23701 -1.65366,2.49742 -3.125,3.8125 -1.47136,1.31513 -3.19011,2.45054 -5.15625,3.375 l 0,3.375 c 1.09374,-0.40363 2.3138,-1.00519 3.6875,-1.8125 1.37369,-0.80727 2.49739,-1.59894 3.34375,-2.40625 l 0,22.40626 3.5,0 0,-28.75001 -2.25,0 z m 23.1875,0.0937 -13.0625,18.56251 0,3.2187 12.4375,0 0,6.875 3.5,0 0,-6.875 3.875,0 0,-3.2187 -3.875,0 0,-18.56251 -2.875,0 z m -0.625,5.65625 0,12.90626 -8.96875,0 8.96875,-12.90626 z"
       id="text5580-7-9-7"
       inkscape:connector-curvature="0" />
    <text
       xml:space="preserve"
       style="font-size:20px;font-style:normal;font-variant:normal;font-weight:normal;font-stretch:normal;text-align:start;line-height:125%;letter-spacing:0px;word-spacing:0px;writing-mode:lr-tb;text-anchor:start;fill:#000000;fill-opacity:1;stroke:none;font-family:Sans;-inkscape-font-specification:Sans"
       x="553.58398"
       y="997.02252"
       id="text5584-18-4-1"
       sodipodi:linespacing="125%"><tspan
         sodipodi:role="line"
         id="tspan5586-9-3-4"
         x="553.58398"
         y="997.02252">°C</tspan></text>
    <flowRoot
       xml:space="preserve"
       id="flowRoot3192"
       style="fill:black;stroke:none;stroke-opacity:1;stroke-width:1px;stroke-linejoin:miter;stroke-linecap:butt;fill-opacity:1;font-family:Sans;font-style:normal;font-weight:normal;font-size:40px;line-height:125%;letter-spacing:0px;word-spacing:0px"><flowRegion
         id="flowRegion3194"><rect
           id="rect3196"
           width="68.589355"
           height="65.760933"
           x="215.66757"
           y="380.68567" /></flowRegion><flowPara
         id="flowPara3198"></flowPara></flowRoot>    <path
       style="fill:none;stroke:#000000;stroke-width:3.19255209px;stroke-linecap:butt;stroke-linejoin:miter;stroke-opacity:1"
       d="m 824.71813,853.46355 0,224.15285"
       id="path3202"
       inkscape:connector-curvature="0" />
    <text
       xml:space="preserve"
       style="font-size:40px;font-style:normal;font-weight:normal;line-height:125%;letter-spacing:0px;word-spacing:0px;fill:#000000;fill-opacity:1;stroke:none;font-family:Sans"
       x="655.49701"
       y="544.52075"
       id="text5572-1-2"
       sodipodi:linespacing="125%"><tspan
         sodipodi:role="line"
         id="tspan5574-6-3"
         x="655.49701"
         y="544.52075">tog</tspan></text>
    <flowRoot
       xml:space="preserve"
       id="flowRoot3225"
       style="fill:black;stroke:none;stroke-opacity:1;stroke-width:1px;stroke-linejoin:miter;stroke-linecap:butt;fill-opacity:1;font-family:Sans;font-style:normal;font-weight:normal;font-size:40px;line-height:125%;letter-spacing:0px;word-spacing:0px"><flowRegion
         id="flowRegion3227"><rect
           id="rect3229"
           width="83.438599"
           height="76.367531"
           x="220.61731"
           y="310.6821" /></flowRegion><flowPara
         id="flowPara3231"></flowPara></flowRoot>    <flowRoot
       xml:space="preserve"
       id="flowRoot3233"
       style="fill:black;stroke:none;stroke-opacity:1;stroke-width:1px;stroke-linejoin:miter;stroke-linecap:butt;fill-opacity:1;font-family:Sans;font-style:normal;font-weight:normal;font-size:40px;line-height:125%;letter-spacing:0px;word-spacing:0px"><flowRegion
         id="flowRegion3235"><rect
           id="rect3237"
           width="73.539108"
           height="65.760933"
           x="222.73863"
           y="314.21765" /></flowRegion><flowPara
         id="flowPara3239"></flowPara></flowRoot>    <flowRoot
       xml:space="preserve"
       id="flowRoot3271"
       style="fill:black;stroke:none;stroke-opacity:1;stroke-width:1px;stroke-linejoin:miter;stroke-linecap:butt;fill-opacity:1;font-family:Sans;font-style:normal;font-weight:normal;font-size:40px;line-height:125%;letter-spacing:0px;word-spacing:0px"><flowRegion
         id="flowRegion3273"><rect
           id="rect3275"
           width="258"
           height="366"
           x="400"
           y="476" /></flowRegion><flowPara
         id="flowPara3277"></flowPara></flowRoot>    <g
       id="g3291"
       transform="matrix(2.6543351,0,0,2.6543351,39.15305,662.61207)">
      <path
         id="path3281"
         d="m 81.729,20.231 c -3.268,0 -6.331,0.861 -8.984,2.365 l -6.078,-9.272 1.912,-3.769 h 3.035 c 0.824,0 2.104,-0.652 2.104,-2.138 -0.269,-2.368 -2.349,-2.47 -5.647,-1.186 -5.413,0 -8.169,0.574 -8.169,3.324 h 6.216 l -1.055,2.076 h -30.01 c 0.901,-2.181 1.759,-4.389 2.549,-6.634 -1.556,0 -3.31,-0.096 -3.31,-1.357 0,-1.232 1.088,-1.403 1.898,-1.446 H 46.984 V 0.001 H 36.191 c -2.305,-0.031 -4.167,0.931 -4.167,3.119 0,1.625 0.576,3.098 2.894,3.719 C 32.005,14.13 29.53,18.921 27.742,22.884 24.978,21.202 21.736,20.232 18.264,20.232 8.175,20.231 0,28.413 0,38.502 0,48.59 8.175,56.765 18.264,56.765 c 10.088,0 18.27,-8.175 18.27,-18.263 0,-5.851 -2.752,-11.055 -7.031,-14.399 1.371,-2.97 2.739,-5.946 4.05,-8.95 l 13.699,19.244 c -1.333,1.204 -2.172,2.949 -2.172,4.887 0,3.38 2.551,6.166 5.832,6.537 v 2.652 H 49.15 v 1.775 h 5.017 V 48.473 H 52.405 V 45.82 c 3.281,-0.371 5.832,-3.157 5.832,-6.537 0,-0.037 10e-4,-0.073 0,-0.11 H 63.48 C 63.833,48.95 71.866,56.765 81.729,56.765 91.818,56.765 100,48.59 100,38.502 100,28.413 91.818,20.231 81.729,20.231 z M 33.546,38.502 c 0,8.437 -6.846,15.275 -15.282,15.275 -8.437,0 -15.276,-6.839 -15.276,-15.275 0,-8.438 6.839,-15.276 15.276,-15.276 3.027,0 5.849,0.886 8.224,2.405 -1.058,2.291 -2.046,4.386 -3.091,6.648 -0.004,0.009 -0.01,0.018 -0.014,0.027 -1.039,1.766 -2.397,3.047 -3.776,4.174 -0.385,-0.257 -0.846,-0.412 -1.343,-0.412 -1.341,0 -2.426,1.092 -2.426,2.434 0,1.34 1.085,2.426 2.426,2.426 1.341,0 2.433,-1.086 2.433,-2.426 0,-0.023 -0.006,-0.047 -0.007,-0.068 1.587,-1.266 3.32,-2.828 4.64,-5.113 l 0.027,-0.048 0.021,-0.041 c 0.918,-2.121 1.869,-4.222 2.83,-6.318 3.263,2.8 5.338,6.95 5.338,11.588 z M 72.89,26.049 79.962,36.842 c -0.154,0.165 -0.287,0.353 -0.391,0.556 H 66.502 c 0.335,-4.685 2.775,-8.78 6.388,-11.349 z M 34.485,13.405 h 29.68 L 54.133,33.184 c -0.543,-0.221 -1.124,-0.37 -1.728,-0.438 v -2.652 h 1.762 V 28.319 H 49.15 v 1.775 h 1.761 v 2.652 c -0.78,0.088 -1.519,0.32 -2.193,0.658 L 34.485,13.405 z m 17.173,31.202 c -2.941,0 -5.325,-2.383 -5.325,-5.324 0,-2.942 2.384,-5.325 5.325,-5.325 2.941,0 5.325,2.383 5.325,5.325 0,2.942 -2.383,5.324 -5.325,5.324 z m 6.305,-7.209 c -0.356,-1.195 -1.047,-2.253 -1.96,-3.057 l 9.738,-19.196 5.503,8.395 c -4.421,3.107 -7.402,8.128 -7.743,13.857 h -5.538 z m 23.766,16.379 c -8.212,0 -14.904,-6.479 -15.255,-14.604 h 12.925 c 0.293,1.013 1.224,1.755 2.33,1.755 1.341,0 2.433,-1.086 2.433,-2.426 0,-1.342 -1.092,-2.434 -2.433,-2.434 -0.051,0 -0.101,0.004 -0.15,0.008 L 74.39,25.104 c 2.178,-1.195 4.681,-1.877 7.34,-1.877 8.438,0 15.282,6.838 15.282,15.276 0,8.435 -6.845,15.274 -15.283,15.274 z"
         inkscape:connector-curvature="0" />
      <path
         id="path3283"
         d="m 51.658,34.424 c -2.682,0 -4.858,2.177 -4.858,4.859 0,2.682 2.177,4.858 4.858,4.858 2.681,0 4.853,-2.177 4.853,-4.858 0,-2.682 -2.171,-4.859 -4.853,-4.859 z m 0,5.688 c -0.459,0 -0.836,-0.37 -0.836,-0.829 0,-0.46 0.377,-0.829 0.836,-0.829 0.46,0 0.829,0.369 0.829,0.829 0,0.459 -0.369,0.829 -0.829,0.829 z"
         inkscape:connector-curvature="0" />
    </g>
  </g>
</svg>
