<?xml version="1.0" encoding="UTF-8" standalone="no"?>
<!-- Created with Inkscape (http://www.inkscape.org/) -->

<svg
   xmlns:dc="http://purl.org/dc/elements/1.1/"
   xmlns:cc="http://creativecommons.org/ns#"
   xmlns:rdf="http://www.w3.org/1999/02/22-rdf-syntax-ns#"
   xmlns:svg="http://www.w3.org/2000/svg"
   xmlns="http://www.w3.org/2000/svg"
   xmlns:sodipodi="http://sodipodi.sourceforge.net/DTD/sodipodi-0.dtd"
   xmlns:inkscape="http://www.inkscape.org/namespaces/inkscape"
   version="1.2"
   width="600"
   height="800"
   id="svg2"
   inkscape:version="0.48.4 r9939"
   sodipodi:docname="skjermplain.svg">
  <sodipodi:namedview
     pagecolor="#ffffff"
     bordercolor="#666666"
     borderopacity="1"
     objecttolerance="10"
     gridtolerance="10"
     guidetolerance="10"
     inkscape:pageopacity="0"
     inkscape:pageshadow="2"
     inkscape:window-width="1600"
     inkscape:window-height="838"
     id="namedview95"
     showgrid="false"
     inkscape:zoom="0.90971816"
     inkscape:cx="302.60024"
     inkscape:cy="396.74306"
     inkscape:window-x="-8"
     inkscape:window-y="-8"
     inkscape:window-maximized="1"
     inkscape:current-layer="layer1"
     showguides="true">
    <inkscape:grid
       type="xygrid"
       id="grid3079" />
  </sodipodi:namedview>
  <defs
     id="defs4">
    <linearGradient
       id="linearGradient4054">
      <stop
         id="stop4056"
         style="stop-color:#1a1a1a;stop-opacity:1"
         offset="0" />
    </linearGradient>
  </defs>
  <metadata
     id="metadata7">
    <rdf:RDF>
      <cc:Work
         rdf:about="">
        <dc:format>image/svg+xml</dc:format>
        <dc:type
           rdf:resource="http://purl.org/dc/dcmitype/StillImage" />
        <dc:title />
      </cc:Work>
    </rdf:RDF>
  </metadata>
  <g
     transform="translate(0,-252.36218)"
     id="layer1">
    <text
       x="298"
       y="545.21936"
       id="text3168"
       xml:space="preserve"
       style="font-size:40px;font-style:normal;font-variant:normal;font-weight:normal;font-stretch:normal;text-align:middle;line-height:125%;letter-spacing:0px;word-spacing:0px;writing-mode:lr-tb;text-anchor:middle;fill:#000000;fill-opacity:1;stroke:none;font-family:Sans;-inkscape-font-specification:Sans"><tspan
         x="298"
         y="545.21936"
         id="tspan3180"
         style="font-size:40px;font-style:normal;font-variant:normal;font-weight:normal;font-stretch:normal;text-align:middle;line-height:125%;writing-mode:lr-tb;text-anchor:middle;font-family:Sans;-inkscape-font-specification:Sans">Torsdag: Nora overtid</tspan><tspan
         x="298"
         y="595.21936"
         id="tspan3182"
         style="font-size:40px;font-style:normal;font-variant:normal;font-weight:normal;font-stretch:normal;text-align:middle;line-height:125%;writing-mode:lr-tb;text-anchor:middle;font-family:Sans;-inkscape-font-specification:Sans">fredag-mandag: Benthe i oslo</tspan><tspan
         x="298"
         y="645.21936"
         id="tspan3186"
         style="font-size:40px;font-style:normal;font-variant:normal;font-weight:normal;font-stretch:normal;text-align:middle;line-height:125%;writing-mode:lr-tb;text-anchor:middle;font-family:Sans;-inkscape-font-specification:Sans" /></text>
    <text
       x="30.000002"
       y="313.79074"
       id="text5572"
       xml:space="preserve"
       style="font-size:40px;font-style:normal;font-variant:normal;font-weight:bold;font-stretch:normal;text-align:start;line-height:125%;letter-spacing:0px;word-spacing:0px;writing-mode:lr-tb;text-anchor:start;fill:#000000;fill-opacity:1;stroke:none;font-family:Sans;-inkscape-font-specification:Sans Bold"><tspan
         x="30.000002"
         y="313.79074"
         id="tspan5574">ute</tspan></text>
    <text
       x="242.85716"
       y="316.64789"
       id="text5576"
       xml:space="preserve"
       style="font-size:40px;font-style:normal;font-variant:normal;font-weight:bold;font-stretch:normal;text-align:start;line-height:125%;letter-spacing:0px;word-spacing:0px;writing-mode:lr-tb;text-anchor:start;fill:#000000;fill-opacity:1;stroke:none;font-family:Sans;-inkscape-font-specification:Sans Bold"><tspan
         x="242.85716"
         y="316.64789"
         id="tspan5578">inne</tspan></text>
    <text
       x="34.285713"
       y="394.91437"
       id="text5580"
       xml:space="preserve"
       style="font-size:100px;font-style:normal;font-variant:normal;font-weight:normal;font-stretch:normal;text-align:start;line-height:125%;letter-spacing:0px;word-spacing:0px;writing-mode:lr-tb;text-anchor:start;fill:#000000;fill-opacity:1;stroke:none;font-family:Sans;-inkscape-font-specification:Sans"
       sodipodi:linespacing="125%"><tspan
         x="34.285713"
         y="394.91437"
         id="tspan5582">14</tspan></text>
    <text
       x="144.28572"
       y="358.07648"
       id="text5584"
       xml:space="preserve"
       style="font-size:48px;font-style:normal;font-variant:normal;font-weight:normal;font-stretch:normal;text-align:start;line-height:125%;letter-spacing:0px;word-spacing:0px;writing-mode:lr-tb;text-anchor:start;fill:#000000;fill-opacity:1;stroke:none;font-family:Sans;-inkscape-font-specification:Sans"><tspan
         x="144.28572"
         y="358.07648"
         id="tspan5586">°C</tspan></text>
    <text
       x="145.71428"
       y="389.50504"
       id="text5588"
       xml:space="preserve"
       style="font-size:40px;font-style:normal;font-weight:normal;line-height:125%;letter-spacing:0px;word-spacing:0px;fill:#000000;fill-opacity:1;stroke:none;font-family:Sans"><tspan
         x="145.71428"
         y="389.50504"
         id="tspan5590"
         style="font-size:28px">58%</tspan></text>
    <text
       x="255.64803"
       y="394.91437"
       id="text5580-5"
       xml:space="preserve"
       style="font-size:100px;font-style:normal;font-variant:normal;font-weight:normal;font-stretch:normal;text-align:start;line-height:125%;letter-spacing:0px;word-spacing:0px;writing-mode:lr-tb;text-anchor:start;fill:#000000;fill-opacity:1;stroke:none;font-family:Sans;-inkscape-font-specification:Sans"><tspan
         x="255.64803"
         y="394.91437"
         id="tspan5582-5">23</tspan></text>
    <text
       x="365.64804"
       y="357.77151"
       id="text5584-1"
       xml:space="preserve"
       style="font-size:48px;font-style:normal;font-variant:normal;font-weight:normal;font-stretch:normal;text-align:start;line-height:125%;letter-spacing:0px;word-spacing:0px;writing-mode:lr-tb;text-anchor:start;fill:#000000;fill-opacity:1;stroke:none;font-family:Sans;-inkscape-font-specification:Sans"><tspan
         x="365.64804"
         y="357.77151"
         id="tspan5586-7">°C</tspan></text>
    <text
       x="367.0766"
       y="389.20007"
       id="text5588-1"
       xml:space="preserve"
       style="font-size:40px;font-style:normal;font-weight:normal;line-height:125%;letter-spacing:0px;word-spacing:0px;fill:#000000;fill-opacity:1;stroke:none;font-family:Sans"><tspan
         x="367.0766"
         y="389.20007"
         id="tspan5590-1"
         style="font-size:28px">58%</tspan></text>
    <text
       x="532.12134"
       y="396.72971"
       id="text5625"
       xml:space="preserve"
       style="font-size:40px;font-style:normal;font-variant:normal;font-weight:normal;font-stretch:normal;text-align:end;line-height:125%;letter-spacing:0px;word-spacing:0px;writing-mode:lr-tb;text-anchor:end;fill:#000000;fill-opacity:1;stroke:none;font-family:Sans;-inkscape-font-specification:Sans"><tspan
         x="532.12134"
         y="396.72971"
         id="tspan5627">1567</tspan></text>
    <text
       x="532.31476"
       y="361.32147"
       id="text5625-7"
       xml:space="preserve"
       style="font-size:40px;font-style:normal;font-variant:normal;font-weight:normal;font-stretch:normal;text-align:end;line-height:125%;letter-spacing:0px;word-spacing:0px;writing-mode:lr-tb;text-anchor:end;fill:#000000;fill-opacity:1;stroke:none;font-family:Sans;-inkscape-font-specification:Sans"><tspan
         x="532.31476"
         y="361.32147"
         id="tspan5627-6">998</tspan></text>
    <text
       x="533.85028"
       y="326.02496"
       id="text5625-7-1"
       xml:space="preserve"
       style="font-size:40px;font-style:normal;font-variant:normal;font-weight:normal;font-stretch:normal;text-align:end;line-height:125%;letter-spacing:0px;word-spacing:0px;writing-mode:lr-tb;text-anchor:end;fill:#000000;fill-opacity:1;stroke:none;font-family:Sans;-inkscape-font-specification:Sans"><tspan
         x="533.85028"
         y="326.02496"
         id="tspan5627-6-4">67</tspan></text>
    <text
       x="533.61523"
       y="394.06424"
       id="text5692"
       xml:space="preserve"
       style="font-size:20px;font-style:normal;font-variant:normal;font-weight:normal;font-stretch:normal;text-align:start;line-height:125%;letter-spacing:0px;word-spacing:0px;writing-mode:lr-tb;text-anchor:start;fill:#000000;fill-opacity:1;stroke:none;font-family:Sans;-inkscape-font-specification:Sans"><tspan
         x="533.61523"
         y="394.06424"
         id="tspan5694">ppm</tspan></text>
    <text
       x="532.77289"
       y="359.88455"
       id="text5692-2"
       xml:space="preserve"
       style="font-size:20px;font-style:normal;font-variant:normal;font-weight:normal;font-stretch:normal;text-align:start;line-height:125%;letter-spacing:0px;word-spacing:0px;writing-mode:lr-tb;text-anchor:start;fill:#000000;fill-opacity:1;stroke:none;font-family:Sans;-inkscape-font-specification:Sans"><tspan
         x="532.77289"
         y="359.88455"
         id="tspan5694-3">mbar</tspan></text>
    <text
       x="535.01575"
       y="322.59787"
       id="text5692-2-2"
       xml:space="preserve"
       style="font-size:20px;font-style:normal;font-variant:normal;font-weight:normal;font-stretch:normal;text-align:start;line-height:125%;letter-spacing:0px;word-spacing:0px;writing-mode:lr-tb;text-anchor:start;fill:#000000;fill-opacity:1;stroke:none;font-family:Sans;-inkscape-font-specification:Sans"><tspan
         x="535.01575"
         y="322.59787"
         id="tspan5694-3-2">db</tspan></text>
    <text
       x="26.333834"
       y="879.56055"
       id="text5572-1"
       xml:space="preserve"
       style="font-size:40px;font-style:normal;font-variant:normal;font-weight:bold;font-stretch:normal;text-align:start;line-height:125%;letter-spacing:0px;word-spacing:0px;writing-mode:lr-tb;text-anchor:start;fill:#000000;fill-opacity:1;stroke:none;font-family:Sans;-inkscape-font-specification:Sans Bold"><tspan
         x="26.333834"
         y="879.56055"
         id="tspan5574-6">varsel i morgen</tspan></text>
    <path
       d="m 94.779776,892.51386 v 22.6822 h 5.937504 v -22.6822 h -5.937504 z m -26.2447,6.4714 -5.0464,3.1464 11.9928,19.2394 5.0483,-3.1483 -11.9947,-19.2375 z m 58.782204,0.5947 -8.9661,16.2089 c -5.6734,1.2597 -10.9744,3.5435 -15.675,6.65 -1.6093,-0.2261 -3.258504,-0.3572 -4.928604,-0.3572 -20.2825,0 -36.6928,16.5205 -36.6928,36.8733 0,3.6993 0.5795,7.2675 1.6017,10.6267 -1.8582,2.3465 -3.3725,5.0198 -4.3928,7.8983 l -1.3072,-2.0197 -19.1178,12.0536 0.65322,1.0678 c -4.51554,4.4289 -7.30322,10.5659 -7.30322,17.33944 0,6.688 3.09605,12.2341 7.77822,15.3767 4.68198,3.1426 10.52619,4.2161 16.56458,4.2161 h 38.8911 5.937504 17.3375 33.9036 31.1125 c 21.185,0 38.475,-17.2862 38.475,-38.47504 0,-21.1888 -17.2881,-38.4161 -38.475,-38.4161 -3.0533,0 -5.9356,0.5016 -8.7286,1.1875 -5.4454,-20.1533 -23.5809,-35.15 -45.4214,-35.15 -0.9481,0 -1.8563,0.0646 -2.7911,0.1197 l 6.7697,-12.2911 -5.225,-2.9089 z m -84.610804,21.6125 -2.90947,5.225 19.7733,10.9839 2.85,-5.225 -19.7144,-10.9839 z m 85.857204,2.5536 c 19.1672,0 34.8061,14.0163 37.7036,32.3589 l 0.8892,5.5214 5.225,-1.9589 c 3.2946,-1.2502 6.7222,-2.0197 10.3322,-2.0197 16.302,0 29.45,13.091 29.45,29.3911 0,16.30014 -13.1499,29.45004 -29.45,29.45004 h -31.1125 -33.9036 -62.166104 c -4.8944,0 -9.0383,-1.007 -11.5178,-2.6714 -2.4795,-1.6644 -3.8,-3.6518 -3.8,-7.8964 0,-8.47974 6.82974,-15.26084 15.3178,-15.26084 1.406,0 2.8234,0.2432 4.3947,0.7125 l 5.8197,1.7822 v -6.1161 c 0,-0.5472 0.0133,-0.8702 0,-0.95 0.2527,-10.0738 8.3828,-18.05 18.525,-18.05 -0.1482,0 0.2242,0.0494 1.2464,0.1178 l 5.0464,0.3572 -0.2375,-5.0464 c -0.0551,-1.2369 -0.1197,-1.6549 -0.1197,-1.3661 0,-21.2382 17.103804,-38.3553 38.357204,-38.3553 z m -97.375004,30.5178 v 5.9375 h 22.6214 v -5.9375 h -22.6214 z"
       id="path5763" />
    <text
       x="471.16989"
       y="936.33148"
       id="text5572-1-8"
       xml:space="preserve"
       style="font-size:20px;font-style:normal;font-variant:normal;font-weight:normal;font-stretch:normal;text-align:start;line-height:125%;letter-spacing:0px;word-spacing:0px;writing-mode:lr-tb;text-anchor:start;fill:#000000;fill-opacity:1;stroke:none;font-family:Sans;-inkscape-font-specification:Sans"><tspan
         x="471.16989"
         y="936.33148"
         id="tspan5574-6-5">natt</tspan></text>
    <flowRoot
       id="flowRoot5793"
       xml:space="preserve"
       style="font-size:40px;font-style:normal;font-weight:normal;line-height:125%;letter-spacing:0px;word-spacing:0px;fill:#000000;fill-opacity:1;stroke:none;font-family:Sans"><flowRegion
         id="flowRegion5795"><rect
           width="188"
           height="111"
           x="19"
           y="64"
           id="rect5797" /></flowRegion><flowPara
         id="flowPara5799" /></flowRoot>    <text
       x="214.65634"
       y="1021.9246"
       id="text5580-7"
       xml:space="preserve"
       style="font-size:144px;font-style:normal;font-variant:normal;font-weight:normal;font-stretch:normal;text-align:start;line-height:125%;letter-spacing:0px;word-spacing:0px;writing-mode:lr-tb;text-anchor:start;fill:#000000;fill-opacity:1;stroke:none;font-family:Sans;-inkscape-font-specification:Sans"><tspan
         x="214.65634"
         y="1021.9246"
         id="tspan5582-6">14</tspan></text>
    <text
       x="360.84012"
       y="956.25482"
       id="text5584-18"
       xml:space="preserve"
       style="font-size:48px;font-style:normal;font-variant:normal;font-weight:normal;font-stretch:normal;text-align:start;line-height:125%;letter-spacing:0px;word-spacing:0px;writing-mode:lr-tb;text-anchor:start;fill:#000000;fill-opacity:1;stroke:none;font-family:Sans;-inkscape-font-specification:Sans"><tspan
         x="360.84012"
         y="956.25482"
         id="tspan5586-9">°C</tspan></text>
    <text
       x="509.08536"
       y="934.08679"
       id="text5580-7-9"
       xml:space="preserve"
       style="font-size:40px;font-style:normal;font-variant:normal;font-weight:normal;font-stretch:normal;text-align:start;line-height:125%;letter-spacing:0px;word-spacing:0px;writing-mode:lr-tb;text-anchor:start;fill:#000000;fill-opacity:1;stroke:none;font-family:Sans;-inkscape-font-specification:Sans"><tspan
         x="509.08536"
         y="934.08679"
         id="tspan5582-6-5">14</tspan></text>
    <text
       x="553.3244"
       y="920.98566"
       id="text5584-18-4"
       xml:space="preserve"
       style="font-size:20px;font-style:normal;font-variant:normal;font-weight:normal;font-stretch:normal;text-align:start;line-height:125%;letter-spacing:0px;word-spacing:0px;writing-mode:lr-tb;text-anchor:start;fill:#000000;fill-opacity:1;stroke:none;font-family:Sans;-inkscape-font-specification:Sans"><tspan
         x="553.3244"
         y="920.98566"
         id="tspan5586-9-3">°C</tspan></text>
    <g
       transform="matrix(1.8426482,0,0,1.8426482,95.126226,631.74469)"
       id="g3054">
      <path
         d="m 87.125,96.447 -8.82,-12.441 c 4.555,-0.029 8.236,-3.729 8.236,-8.287 L 83.568,8.327 c 0,-4.579 -3.713,-8.291 -8.291,-8.291 H 25.724 c -4.578,0 -8.289,3.712 -8.289,8.291 l -2.973,67.392 c 0,4.561 3.683,8.26 8.236,8.287 L 13.88,96.447 c -0.713,1.004 -0.475,2.395 0.529,3.107 0.391,0.276 0.841,0.409 1.288,0.409 0.698,0 1.387,-0.325 1.82,-0.938 L 28.163,84.006 h 21.684 v 1.466 c 0,0.819 0.665,1.485 1.486,1.485 0.821,0 1.487,-0.666 1.487,-1.485 v -1.466 h 20.021 l 10.646,15.019 c 0.435,0.613 1.123,0.938 1.82,0.938 0.445,0 0.896,-0.133 1.287,-0.409 1.006,-0.712 1.244,-2.103 0.531,-3.107 z M 26.346,77.545 c -2.977,0 -5.389,-2.414 -5.389,-5.389 0,-2.977 2.412,-5.389 5.389,-5.389 2.977,0 5.389,2.412 5.389,5.389 -10e-4,2.975 -2.413,5.389 -5.389,5.389 z m 1.484,-20.76 c -3.452,0 -6.249,-2.801 -6.249,-6.251 l 1.486,-39.238 c 0,-3.451 2.798,-6.249 6.249,-6.249 h 42.368 c 3.455,0 6.252,2.798 6.252,6.249 l 1.485,39.238 c 0,3.45 -2.796,6.251 -6.251,6.251 H 27.83 z m 41.44,15.371 c 0,-2.977 2.412,-5.389 5.39,-5.389 2.977,0 5.389,2.412 5.389,5.389 0,2.975 -2.412,5.389 -5.389,5.389 -2.978,0 -5.39,-2.414 -5.39,-5.389 z"
         id="path3056"
         style="fill:#000000" />
      <path
         d="m 51.333,89.213 c -0.821,0 -1.486,0.664 -1.486,1.486 v 7.557 c 0,0.82 0.665,1.486 1.486,1.486 0.821,0 1.487,-0.666 1.487,-1.486 v -7.557 c 0,-0.822 -0.666,-1.486 -1.487,-1.486 z"
         id="path3058"
         style="fill:#000000" />
    </g>
    <text
       x="270.82114"
       y="812.06653"
       id="text3069"
       xml:space="preserve"
       style="font-size:250px;font-style:normal;font-variant:normal;font-weight:normal;font-stretch:normal;text-align:start;line-height:125%;letter-spacing:0px;word-spacing:0px;writing-mode:lr-tb;text-anchor:start;fill:#000000;fill-opacity:1;stroke:none;font-family:Sans;-inkscape-font-specification:Sans"
       sodipodi:linespacing="125%"><tspan
         x="270.82114"
         y="812.06653"
         id="tspan3071"
         style="font-size:250px;font-style:normal;font-variant:normal;font-weight:normal;font-stretch:normal;text-align:start;line-height:125%;writing-mode:lr-tb;text-anchor:start;font-family:Sans;-inkscape-font-specification:Sans">12</tspan></text>
    <text
       x="168.22443"
       y="483.44318"
       id="text5572-1-88"
       xml:space="preserve"
       style="font-size:64px;font-style:normal;font-variant:normal;font-weight:bold;font-stretch:normal;text-align:start;line-height:125%;letter-spacing:0px;word-spacing:0px;writing-mode:lr-tb;text-anchor:start;fill:#000000;fill-opacity:1;stroke:none;font-family:Sans;-inkscape-font-specification:Sans Bold"><tspan
         x="168.22443"
         y="483.44318"
         id="tspan5574-6-2">hva skjer</tspan></text>
    <text
       x="439.74756"
       y="974.79822"
       id="text5572-1-8-4"
       xml:space="preserve"
       style="font-size:20px;font-style:normal;font-variant:normal;font-weight:normal;font-stretch:normal;text-align:start;line-height:125%;letter-spacing:0px;word-spacing:0px;writing-mode:lr-tb;text-anchor:start;fill:#000000;fill-opacity:1;stroke:none;font-family:Sans;-inkscape-font-specification:Sans"><tspan
         x="439.74756"
         y="974.79822"
         id="tspan5574-6-5-5">morgen</tspan></text>
    <text
       x="508.55746"
       y="976.36981"
       id="text5580-7-9-5"
       xml:space="preserve"
       style="font-size:40px;font-style:normal;font-variant:normal;font-weight:normal;font-stretch:normal;text-align:start;line-height:125%;letter-spacing:0px;word-spacing:0px;writing-mode:lr-tb;text-anchor:start;fill:#000000;fill-opacity:1;stroke:none;font-family:Sans;-inkscape-font-specification:Sans"><tspan
         x="508.55746"
         y="976.36981"
         id="tspan5582-6-5-1">14</tspan></text>
    <text
       x="552.79651"
       y="963.26862"
       id="text5584-18-4-7"
       xml:space="preserve"
       style="font-size:20px;font-style:normal;font-variant:normal;font-weight:normal;font-stretch:normal;text-align:start;line-height:125%;letter-spacing:0px;word-spacing:0px;writing-mode:lr-tb;text-anchor:start;fill:#000000;fill-opacity:1;stroke:none;font-family:Sans;-inkscape-font-specification:Sans"><tspan
         x="552.79651"
         y="963.26862"
         id="tspan5586-9-3-1">°C</tspan></text>
    <text
       x="458.83948"
       y="1014.3963"
       id="text5572-1-8-15"
       xml:space="preserve"
       style="font-size:20px;font-style:normal;font-variant:normal;font-weight:normal;font-stretch:normal;text-align:start;line-height:125%;letter-spacing:0px;word-spacing:0px;writing-mode:lr-tb;text-anchor:start;fill:#000000;fill-opacity:1;stroke:none;font-family:Sans;-inkscape-font-specification:Sans"><tspan
         x="458.83948"
         y="1014.3963"
         id="tspan5574-6-5-2">kveld</tspan></text>
    <path
       d="m 521.98914,987.38239 c -0.61199,1.23701 -1.65366,2.49742 -3.125,3.8125 -1.47136,1.31513 -3.19011,2.45054 -5.15625,3.375 l 0,3.375 c 1.09374,-0.40363 2.3138,-1.00519 3.6875,-1.8125 1.37369,-0.80727 2.49739,-1.59894 3.34375,-2.40625 l 0,22.40626 3.5,0 0,-28.75001 -2.25,0 z m 23.1875,0.0937 -13.0625,18.56251 0,3.2187 12.4375,0 0,6.875 3.5,0 0,-6.875 3.875,0 0,-3.2187 -3.875,0 0,-18.56251 -2.875,0 z m -0.625,5.65625 0,12.90626 -8.96875,0 8.96875,-12.90626 z"
       id="text5580-7-9-7"
       style="font-size:40px;font-style:normal;font-variant:normal;font-weight:normal;font-stretch:normal;text-align:start;line-height:125%;letter-spacing:0px;word-spacing:0px;writing-mode:lr-tb;text-anchor:start;fill:#000000;fill-opacity:1;stroke:none;font-family:Sans;-inkscape-font-specification:Sans" />
    <text
       x="553.58398"
       y="997.02252"
       id="text5584-18-4-1"
       xml:space="preserve"
       style="font-size:20px;font-style:normal;font-variant:normal;font-weight:normal;font-stretch:normal;text-align:start;line-height:125%;letter-spacing:0px;word-spacing:0px;writing-mode:lr-tb;text-anchor:start;fill:#000000;fill-opacity:1;stroke:none;font-family:Sans;-inkscape-font-specification:Sans"><tspan
         x="553.58398"
         y="997.02252"
         id="tspan5586-9-3-4">°C</tspan></text>
  </g>
</svg>
